<svg width="64" height="16" viewBox="0 0 64 16" fill="none" xmlns="http://www.w3.org/2000/svg">
<path d="M58.0918 0.950496C59.8752 0.950496 61.2562 1.37286 62.2351 2.2176C63.2139 3.06233 63.7033 4.24898 63.7033 5.77755C63.7033 7.37316 63.2139 8.61344 62.2351 9.4984C61.2562 10.3834 59.8752 10.8258 58.0918 10.8258C54.9097 10.8258 55.0347 10.6824 55.0347 11.3174V13.9302C55.0347 14.5373 54.5426 15.0294 53.9355 15.0294H53.4388C52.8317 15.0294 52.3396 14.5373 52.3396 13.9302V2.04969C52.3396 1.44262 52.8317 0.950496 53.4388 0.950496H58.0918ZM57.9712 8.59333C58.9768 8.59333 59.7478 8.36538 60.2841 7.9095C60.8339 7.45361 61.1088 6.76307 61.1088 5.83789C61.1088 4.95293 60.8339 4.29591 60.2841 3.86684C59.7478 3.42436 58.9768 3.20312 57.9712 3.20312H55.1347C55.0795 3.20312 55.0347 3.24789 55.0347 3.30312V8.49333C55.0347 8.54856 55.0795 8.59333 55.1347 8.59333H57.9712Z" fill="#4A4A4A"/>
<path d="M33.425 2.04969C33.425 1.44262 33.9172 0.950496 34.5242 0.950496H35.8262C36.2409 0.950496 36.6202 1.18381 36.8072 1.55385L41.0699 9.98731C41.1106 10.0679 41.2258 10.0677 41.2663 9.98696L45.4903 1.55726C45.6767 1.18534 46.057 0.950496 46.473 0.950496H47.7724C48.3795 0.950496 48.8716 1.44262 48.8716 2.04969V13.9302C48.8716 14.5373 48.3795 15.0294 47.7724 15.0294H47.4969C46.8899 15.0294 46.3977 14.5373 46.3977 13.9302V5.18198C46.3977 5.06572 46.2408 5.02905 46.1893 5.13327L42.3157 12.9692C42.1304 13.344 41.7485 13.5813 41.3304 13.5813H40.9649C40.5475 13.5813 40.1661 13.3448 39.9804 12.971L36.0871 5.13117C36.0355 5.02714 35.8788 5.0639 35.8788 5.18006V13.9302C35.8788 14.5373 35.3867 15.0294 34.7796 15.0294H34.5242C33.9172 15.0294 33.425 14.5373 33.425 13.9302V2.04969Z" fill="#4A4A4A"/>
<path d="M30.4404 3.90237C30.0068 4.41376 29.2223 4.41037 28.6741 4.02431C28.4159 3.84247 28.1405 3.68271 27.848 3.54504C27.1642 3.20983 26.4803 3.04222 25.7965 3.04222C25.1395 3.04222 24.5227 3.1696 23.9461 3.42436C23.383 3.66571 22.8801 4.01433 22.4377 4.47022C22.0086 4.9127 21.6734 5.42893 21.432 6.0189C21.1907 6.60888 21.07 7.24578 21.07 7.92961C21.07 8.61344 21.1907 9.25705 21.432 9.86043C21.6734 10.4504 22.0086 10.9666 22.4377 11.4091C22.8801 11.8516 23.383 12.2002 23.9461 12.455C24.5227 12.7097 25.1395 12.8371 25.7965 12.8371C26.4803 12.8371 27.1575 12.6896 27.8279 12.3946C28.154 12.2446 28.4627 12.0692 28.754 11.8684C29.2625 11.5178 29.9688 11.5163 30.3947 11.9637L30.4778 12.0511C30.8849 12.4788 30.8853 13.1589 30.4174 13.5191C30.1546 13.7214 29.8747 13.9098 29.5777 14.0841C28.9743 14.4461 28.3374 14.7277 27.667 14.9288C27.01 15.1166 26.3395 15.2104 25.6557 15.2104C24.6233 15.2104 23.6578 15.0294 22.7595 14.6674C21.8745 14.2919 21.0968 13.7757 20.4264 13.1187C19.7694 12.4617 19.2532 11.6907 18.8777 10.8057C18.5023 9.92077 18.3146 8.97547 18.3146 7.96984C18.3146 6.95079 18.5023 6.0122 18.8777 5.15406C19.2532 4.2825 19.7828 3.51822 20.4666 2.86121C21.1505 2.20419 21.9349 1.69467 22.8198 1.33264C23.7182 0.970611 24.697 0.789597 25.7563 0.789597C26.4401 0.789597 27.1038 0.883456 27.7474 1.07117C28.4044 1.24548 29.0279 1.50024 29.6179 1.83546C29.9077 1.99354 30.1814 2.16943 30.4389 2.36311C30.8911 2.70335 30.9075 3.35146 30.5415 3.78317L30.4404 3.90237Z" fill="#4A4A4A"/>
<path d="M0.506165 2.04969C0.506165 1.44262 0.998293 0.950496 1.60536 0.950496H2.90737C3.32199 0.950496 3.70134 1.18381 3.88837 1.55385L8.15103 9.9873C8.19177 10.0679 8.30695 10.0677 8.34741 9.98696L12.5714 1.55726C12.7578 1.18534 13.1382 0.950496 13.5542 0.950496H14.8535C15.4606 0.950496 15.9527 1.44262 15.9527 2.04969V13.9302C15.9527 14.5373 15.4606 15.0294 14.8535 15.0294H14.5781C13.971 15.0294 13.4789 14.5373 13.4789 13.9302V5.18198C13.4789 5.06572 13.3219 5.02905 13.2704 5.13327L9.39687 12.9692C9.21157 13.344 8.82964 13.5813 8.41149 13.5813H8.04601C7.62859 13.5813 7.24719 13.3448 7.06153 12.971L3.16828 5.13117C3.11662 5.02714 2.95992 5.0639 2.95992 5.18006V13.9302C2.95992 14.5373 2.46779 15.0294 1.86072 15.0294H1.60536C0.998292 15.0294 0.506165 14.5373 0.506165 13.9302V2.04969Z" fill="#4A4A4A"/>
</svg>
