<svg width="110" height="32" viewBox="0 0 110 32" fill="none" xmlns="http://www.w3.org/2000/svg">
<path fill-rule="evenodd" clip-rule="evenodd" d="M0.693553 7.15589C0 9.01538 0 11.3436 0 16C0 20.6564 0 22.9846 0.693553 24.8441C1.80853 27.8335 4.16652 30.1915 7.15589 31.3064C9.01538 32 11.3436 32 16 32C20.6564 32 22.9846 32 24.8441 31.3064C27.8335 30.1915 30.1915 27.8335 31.3064 24.8441C32 22.9846 32 20.6564 32 16C32 11.3436 32 9.01538 31.3064 7.15589C30.1915 4.16652 27.8335 1.80853 24.8441 0.693553C22.9846 0 20.6564 0 16 0C11.3436 0 9.01538 0 7.15589 0.693553C4.16652 1.80853 1.80853 4.16652 0.693553 7.15589ZM12.2393 10.8593C11.6083 11.6859 11.2667 12.6972 11.2672 13.7371C11.2659 13.9356 11.2781 14.1338 11.3037 14.3306C11.3229 14.4848 11.3091 14.6413 11.2631 14.7897C11.2172 14.9382 11.1401 15.0751 11.037 15.1914C10.934 15.3077 10.8073 15.4007 10.6655 15.4642C10.5236 15.5277 10.3699 15.5603 10.2145 15.5597H10.1708C9.30072 15.5601 8.46645 15.9061 7.85149 16.5216C7.23654 17.1371 6.89128 17.9717 6.89167 18.8417C6.89205 19.7118 7.23805 20.5461 7.85355 21.161C8.46906 21.776 9.30363 22.1212 10.1737 22.1208H21.4734C22.6186 22.1173 23.7167 21.6649 24.5319 20.8607C25.3472 20.0565 25.8145 18.9647 25.8336 17.8197C25.8527 16.6747 25.422 15.5679 24.634 14.7369C23.8461 13.906 22.7636 13.4172 21.6193 13.3756C20.9928 13.3545 20.3692 13.4684 19.7907 13.7094C19.2121 13.9503 18.692 14.3129 18.2658 14.7724C18.0663 14.9754 17.7955 15.0927 17.5109 15.0993C17.2263 15.1059 16.9504 15.0013 16.7417 14.8076C16.5331 14.6139 16.4082 14.3466 16.3935 14.0623C16.3789 13.778 16.4757 13.4992 16.6634 13.2852C17.5781 12.2979 18.7743 11.6158 20.0898 11.3314C19.5623 10.4351 18.7547 9.7372 17.7914 9.34533C16.828 8.95347 15.7625 8.88939 14.7592 9.16298C13.7559 9.43658 12.8704 10.0326 12.2393 10.8593ZM11.2 8.74994C12.4907 7.50623 14.2134 6.81139 16.0058 6.81149C17.4078 6.81124 18.7769 7.2365 19.932 8.03106C21.0872 8.82561 21.9739 9.95204 22.4751 11.2614C24.1104 11.5122 25.5906 12.3715 26.6193 13.6672C27.6479 14.9629 28.1491 16.5995 28.0225 18.249C27.8958 19.8986 27.1507 21.4394 25.9363 22.5629C24.7219 23.6864 23.1279 24.3097 21.4734 24.3079H10.1737C8.81904 24.3064 7.51316 23.8021 6.50899 22.8929C5.50483 21.9836 4.87384 20.734 4.73826 19.3862C4.60268 18.0383 4.97214 16.6881 5.77509 15.5971C6.57804 14.5061 7.75734 13.7518 9.08455 13.4805C9.15096 11.6893 9.90925 9.99364 11.2 8.74994Z" fill="#316FCA"/>
<path d="M102.092 8.9505C103.875 8.9505 105.256 9.37286 106.235 10.2176C107.214 11.0623 107.703 12.249 107.703 13.7775C107.703 15.3732 107.214 16.6134 106.235 17.4984C105.256 18.3834 103.875 18.8258 102.092 18.8258C98.9097 18.8258 99.0347 18.6824 99.0347 19.3174V21.9302C99.0347 22.5373 98.5426 23.0294 97.9355 23.0294H97.4388C96.8317 23.0294 96.3396 22.5373 96.3396 21.9302V10.0497C96.3396 9.44262 96.8317 8.9505 97.4388 8.9505H102.092ZM101.971 16.5933C102.977 16.5933 103.748 16.3654 104.284 15.9095C104.834 15.4536 105.109 14.7631 105.109 13.8379C105.109 12.9529 104.834 12.2959 104.284 11.8668C103.748 11.4244 102.977 11.2031 101.971 11.2031H99.1347C99.0795 11.2031 99.0347 11.2479 99.0347 11.3031V16.4933C99.0347 16.5486 99.0795 16.5933 99.1347 16.5933H101.971Z" fill="#4A4A4A"/>
<path d="M77.425 10.0497C77.425 9.44262 77.9172 8.9505 78.5242 8.9505H79.8262C80.2409 8.9505 80.6202 9.18381 80.8072 9.55385L85.0699 17.9873C85.1106 18.0679 85.2258 18.0677 85.2663 17.987L89.4903 9.55726C89.6767 9.18534 90.057 8.9505 90.473 8.9505H91.7724C92.3795 8.9505 92.8716 9.44262 92.8716 10.0497V21.9302C92.8716 22.5373 92.3795 23.0294 91.7724 23.0294H91.4969C90.8899 23.0294 90.3977 22.5373 90.3977 21.9302V13.182C90.3977 13.0657 90.2408 13.029 90.1893 13.1333L86.3157 20.9692C86.1304 21.344 85.7485 21.5813 85.3304 21.5813H84.9649C84.5475 21.5813 84.1661 21.3448 83.9804 20.971L80.0871 13.1312C80.0355 13.0271 79.8788 13.0639 79.8788 13.1801V21.9302C79.8788 22.5373 79.3867 23.0294 78.7796 23.0294H78.5242C77.9172 23.0294 77.425 22.5373 77.425 21.9302V10.0497Z" fill="#4A4A4A"/>
<path d="M74.4404 11.9024C74.0068 12.4138 73.2223 12.4104 72.6741 12.0243C72.4159 11.8425 72.1405 11.6827 71.848 11.545C71.1642 11.2098 70.4803 11.0422 69.7965 11.0422C69.1395 11.0422 68.5227 11.1696 67.9461 11.4244C67.383 11.6657 66.8801 12.0143 66.4377 12.4702C66.0086 12.9127 65.6734 13.4289 65.432 14.0189C65.1907 14.6089 65.07 15.2458 65.07 15.9296C65.07 16.6134 65.1907 17.257 65.432 17.8604C65.6734 18.4504 66.0086 18.9666 66.4377 19.4091C66.8801 19.8516 67.383 20.2002 67.9461 20.455C68.5227 20.7097 69.1395 20.8371 69.7965 20.8371C70.4803 20.8371 71.1575 20.6896 71.8279 20.3946C72.154 20.2446 72.4627 20.0692 72.754 19.8684C73.2625 19.5178 73.9688 19.5163 74.3947 19.9637L74.4778 20.0511C74.8849 20.4788 74.8853 21.1589 74.4174 21.5191C74.1546 21.7214 73.8747 21.9098 73.5777 22.0841C72.9743 22.4461 72.3374 22.7277 71.667 22.9288C71.01 23.1166 70.3395 23.2104 69.6557 23.2104C68.6233 23.2104 67.6578 23.0294 66.7595 22.6674C65.8745 22.2919 65.0968 21.7757 64.4264 21.1187C63.7694 20.4617 63.2532 19.6907 62.8777 18.8057C62.5023 17.9208 62.3146 16.9755 62.3146 15.9698C62.3146 14.9508 62.5023 14.0122 62.8777 13.1541C63.2532 12.2825 63.7828 11.5182 64.4666 10.8612C65.1505 10.2042 65.9349 9.69467 66.8198 9.33264C67.7182 8.97061 68.697 8.7896 69.7563 8.7896C70.4401 8.7896 71.1038 8.88346 71.7474 9.07117C72.4044 9.24548 73.0279 9.50024 73.6179 9.83546C73.9077 9.99354 74.1814 10.1694 74.4389 10.3631C74.8911 10.7034 74.9075 11.3515 74.5415 11.7832L74.4404 11.9024Z" fill="#4A4A4A"/>
<path d="M44.5062 10.0497C44.5062 9.44262 44.9983 8.9505 45.6054 8.9505H46.9074C47.322 8.9505 47.7013 9.18381 47.8884 9.55385L52.151 17.9873C52.1918 18.0679 52.3069 18.0677 52.3474 17.987L56.5714 9.55726C56.7578 9.18534 57.1382 8.9505 57.5542 8.9505H58.8535C59.4606 8.9505 59.9527 9.44262 59.9527 10.0497V21.9302C59.9527 22.5373 59.4606 23.0294 58.8535 23.0294H58.5781C57.971 23.0294 57.4789 22.5373 57.4789 21.9302V13.182C57.4789 13.0657 57.3219 13.029 57.2704 13.1333L53.3969 20.9692C53.2116 21.344 52.8296 21.5813 52.4115 21.5813H52.046C51.6286 21.5813 51.2472 21.3448 51.0615 20.971L47.1683 13.1312C47.1166 13.0271 46.9599 13.0639 46.9599 13.1801V21.9302C46.9599 22.5373 46.4678 23.0294 45.8607 23.0294H45.6054C44.9983 23.0294 44.5062 22.5373 44.5062 21.9302V10.0497Z" fill="#4A4A4A"/>
</svg>
