<svg width="32" height="32" viewBox="0 0 32 32" fill="none" xmlns="http://www.w3.org/2000/svg">
<path fill-rule="evenodd" clip-rule="evenodd" d="M0.693553 7.15589C0 9.01538 0 11.3436 0 16C0 20.6564 0 22.9846 0.693553 24.8441C1.80853 27.8335 4.16652 30.1915 7.15589 31.3064C9.01538 32 11.3436 32 16 32C20.6564 32 22.9846 32 24.8441 31.3064C27.8335 30.1915 30.1915 27.8335 31.3064 24.8441C32 22.9846 32 20.6564 32 16C32 11.3436 32 9.01538 31.3064 7.15589C30.1915 4.16652 27.8335 1.80853 24.8441 0.693553C22.9846 0 20.6564 0 16 0C11.3436 0 9.01538 0 7.15589 0.693553C4.16652 1.80853 1.80853 4.16652 0.693553 7.15589ZM12.2393 10.8593C11.6083 11.6859 11.2667 12.6972 11.2672 13.7371C11.2659 13.9356 11.2781 14.1338 11.3037 14.3306C11.3229 14.4848 11.3091 14.6413 11.2631 14.7897C11.2172 14.9382 11.1401 15.0751 11.037 15.1914C10.934 15.3077 10.8073 15.4007 10.6655 15.4642C10.5236 15.5277 10.3699 15.5603 10.2145 15.5597H10.1708C9.30072 15.5601 8.46645 15.9061 7.85149 16.5216C7.23654 17.1371 6.89128 17.9717 6.89167 18.8417C6.89205 19.7118 7.23805 20.5461 7.85355 21.161C8.46906 21.776 9.30363 22.1212 10.1737 22.1208H21.4734C22.6186 22.1173 23.7167 21.6649 24.5319 20.8607C25.3472 20.0565 25.8145 18.9647 25.8336 17.8197C25.8527 16.6747 25.422 15.5679 24.634 14.7369C23.8461 13.906 22.7636 13.4172 21.6193 13.3756C20.9928 13.3545 20.3692 13.4684 19.7907 13.7094C19.2121 13.9503 18.692 14.3129 18.2658 14.7724C18.0663 14.9754 17.7955 15.0927 17.5109 15.0993C17.2263 15.1059 16.9504 15.0013 16.7417 14.8076C16.5331 14.6139 16.4082 14.3466 16.3935 14.0623C16.3789 13.778 16.4757 13.4992 16.6634 13.2852C17.5781 12.2979 18.7743 11.6158 20.0898 11.3314C19.5623 10.4351 18.7547 9.7372 17.7914 9.34533C16.828 8.95347 15.7625 8.88939 14.7592 9.16298C13.7559 9.43658 12.8704 10.0326 12.2393 10.8593ZM11.2 8.74994C12.4907 7.50623 14.2134 6.81139 16.0058 6.81149C17.4078 6.81124 18.7769 7.2365 19.932 8.03106C21.0872 8.82561 21.9739 9.95204 22.4751 11.2614C24.1104 11.5122 25.5906 12.3715 26.6193 13.6672C27.6479 14.9629 28.1491 16.5995 28.0225 18.249C27.8958 19.8986 27.1507 21.4394 25.9363 22.5629C24.7219 23.6864 23.1279 24.3097 21.4734 24.3079H10.1737C8.81904 24.3064 7.51316 23.8021 6.50899 22.8929C5.50483 21.9836 4.87384 20.734 4.73826 19.3862C4.60268 18.0383 4.97214 16.6881 5.77509 15.5971C6.57804 14.5061 7.75734 13.7518 9.08455 13.4805C9.15096 11.6893 9.90925 9.99364 11.2 8.74994Z" fill="#316FCA"/>
</svg>
