<svg xmlns="http://www.w3.org/2000/svg" width="24" height="24" viewBox="0 0 24 24" fill="none" stroke="rgba(var(--tblr-yellow-rgb), 1)" stroke-width="2" stroke-linecap="round" stroke-linejoin="round" class="icon icon-tabler icon-tabler-server-pause">
  <path stroke="none" d="M0 0h24v24H0z" fill="none"/>
  <path d="M3 4m0 3a3 3 0 0 1 3 -3h12a3 3 0 0 1 3 3v2a3 3 0 0 1 -3 3h-12a3 3 0 0 1 -3 -3z"/>
  <path d="M3 12m0 3a3 3 0 0 1 3 -3h12a3 3 0 0 1 3 3v2a3 3 0 0 1 -3 3h-12a3 3 0 0 1 -3 -3z"/>
  <path d="M7 8l0 .01"/>
  <path d="M7 16l0 .01"/>
  <path d="M16 4v6" stroke-linecap="butt"/>
  <path d="M19 4v6" stroke-linecap="butt"/>
</svg>